<svg width="560" height="269" viewBox="0 0 560 269" fill="none" xmlns="http://www.w3.org/2000/svg">
<path fill-rule="evenodd" clip-rule="evenodd" d="M300.541 258.079C288.217 264.235 273.302 267.511 254.515 266.892C216.903 265.651 178.071 250.382 140.94 228.103C103.818 205.829 68.4593 176.587 37.8056 147.483C7.15429 118.381 -18.7772 89.4328 -37.0467 67.7588C-46.181 56.9223 -53.3989 47.9049 -58.3326 41.5982C-60.7994 38.4449 -62.6951 35.9687 -63.9737 34.2819C-64.613 33.4383 -65.098 32.7919 -65.423 32.357C-65.5856 32.1395 -65.708 31.9745 -65.7898 31.8641L-65.8819 31.74L-65.9047 31.7092L-65.9104 31.7014C-65.9117 31.6996 -65.9122 31.6991 -66.5128 32.0375C-67.1134 32.3758 -67.1126 32.3768 -67.1112 32.3786L-67.1053 32.3864L-66.9884 32.5446C-66.9059 32.6558 -66.7825 32.8218 -66.6192 33.0402C-66.2925 33.4778 -65.8057 34.1265 -65.1646 34.972C-63.8823 36.6638 -61.9827 39.1451 -59.5117 42.3039C-54.5698 48.6212 -47.3422 57.6505 -38.1967 68.5004C-19.9066 90.1992 6.05826 119.185 36.7547 148.33C67.4488 177.472 102.889 206.788 140.131 229.134C177.365 251.474 216.463 266.887 254.461 268.14C273.479 268.768 288.664 265.451 301.249 259.164C313.827 252.882 323.76 243.656 332.318 232.529C340.872 221.407 348.072 208.361 355.169 194.419C357.392 190.052 359.605 185.598 361.846 181.086C366.769 171.177 371.83 160.988 377.449 150.82C393.795 121.242 414.787 91.9881 450.435 70.9214C486.075 49.8584 536.453 36.9296 611.671 40.156L611.745 38.9078C536.301 35.6722 485.592 48.6341 449.635 69.8856C413.679 91.1334 392.553 120.619 376.163 150.276C370.531 160.467 365.45 170.696 360.521 180.617C358.283 185.122 356.076 189.565 353.864 193.911C346.772 207.843 339.614 220.805 331.132 231.832C322.654 242.855 312.871 251.92 300.541 258.079Z" fill="url(#paint0_linear_14_149)" fill-opacity="0.1"/>
<path fill-rule="evenodd" clip-rule="evenodd" d="M301.035 251.729C288.711 257.885 273.796 261.161 255.009 260.541C217.401 259.301 178.444 243.712 141.122 220.948C103.81 198.19 68.1983 168.302 37.2913 138.552C6.38662 108.805 -19.7982 79.2101 -38.2576 57.0516C-47.4869 45.9727 -54.7839 36.754 -59.773 30.3057C-62.2675 27.0816 -64.185 24.5502 -65.4785 22.8253C-66.1253 21.9628 -66.616 21.3022 -66.9448 20.8571C-67.1093 20.6346 -67.2333 20.4659 -67.3159 20.3533L-67.4091 20.2264L-67.438 20.1868C-67.4393 20.185 -67.4399 20.1841 -68.0422 20.5201C-68.6445 20.8562 -68.6438 20.8571 -68.6425 20.859L-68.6126 20.8999L-68.5183 21.0286C-68.4347 21.1422 -68.3099 21.3118 -68.1447 21.5352C-67.8142 21.9826 -67.3217 22.6455 -66.6732 23.5103C-65.3761 25.2403 -63.4549 27.7767 -60.9563 31.0059C-55.9591 37.4648 -48.6525 46.6955 -39.4123 57.7876C-20.9327 79.9705 5.28462 109.602 36.2339 139.392C67.1804 169.18 102.873 199.142 140.305 221.973C177.727 244.798 216.954 260.537 254.955 261.79C273.973 262.418 289.159 259.101 301.743 252.815C314.321 246.531 324.254 237.306 332.812 226.179C341.367 215.057 348.565 202.011 355.663 188.069C357.886 183.702 360.098 179.248 362.34 174.736C367.263 164.827 372.324 154.638 377.943 144.47C394.289 114.892 415.279 85.6382 450.927 64.5711C486.567 43.5081 536.945 30.5797 612.168 33.8057L612.237 32.558C536.793 29.3219 486.088 42.2838 450.128 63.5357C414.176 84.7836 393.047 114.269 376.657 143.926C371.025 154.117 365.944 164.346 361.015 174.266C358.777 178.772 356.57 183.214 354.358 187.561C347.266 201.493 340.108 214.455 331.626 225.482C323.148 236.505 313.364 245.57 301.035 251.729Z" fill="url(#paint1_linear_14_149)" fill-opacity="0.1"/>
<path fill-rule="evenodd" clip-rule="evenodd" d="M302.901 244.759C290.251 250.943 274.902 254.233 255.557 253.62C217.882 252.425 178.882 236.806 141.546 213.997C104.218 191.192 68.5972 161.227 37.6884 131.4C6.7819 101.574 -19.403 71.8966 -37.8617 49.6741C-47.0907 38.5636 -54.3876 29.3173 -59.3768 22.8497C-61.8714 19.6159 -63.789 17.0763 -65.0828 15.3458C-65.7296 14.4806 -66.2205 13.8176 -66.5496 13.3712C-66.6614 13.2195 -66.7545 13.0926 -66.8287 12.9915L-66.921 12.8655L-67.0144 12.7377L-67.0434 12.6977C-67.0447 12.6963 -67.0453 12.6954 -67.4472 12.9188C-67.8492 13.1423 -67.8484 13.1432 -67.847 13.145L-67.8411 13.1533L-67.7233 13.3147C-67.6399 13.4287 -67.5153 13.5983 -67.3502 13.8222C-67.02 14.2705 -66.528 14.9352 -65.8799 15.8019C-64.5839 17.5355 -62.6636 20.0784 -60.1664 23.3154C-55.1718 29.7904 -47.8686 39.0445 -38.6323 50.1638C-20.1602 72.4023 6.04632 102.105 36.9827 131.959C67.9173 161.812 103.592 191.826 141.001 214.68C178.403 237.53 217.584 253.249 255.523 254.452C275.016 255.07 290.542 251.754 303.365 245.487C316.185 239.22 326.271 230.019 334.914 218.907C343.555 207.798 350.763 194.765 357.819 180.825C360.21 176.103 362.582 171.278 364.986 166.388C369.687 156.827 374.511 147.014 379.838 137.222C395.934 107.635 416.562 78.3495 451.935 57.2585C487.302 36.1702 537.479 23.24 612.738 26.4678L612.784 25.6357C537.377 22.4014 486.985 35.3537 451.397 56.5702C415.818 77.7836 395.102 107.225 378.978 136.864C373.644 146.67 368.806 156.51 364.1 166.08C361.698 170.967 359.33 175.782 356.949 180.487C349.896 194.42 342.716 207.395 334.126 218.439C325.539 229.479 315.554 238.575 302.901 244.759Z" fill="url(#paint2_linear_14_149)" fill-opacity="0.1"/>
<path fill-rule="evenodd" clip-rule="evenodd" d="M305.022 239.041C293.062 245.18 278.647 248.435 260.527 247.789C222.919 246.448 184.088 231.129 146.958 208.831C109.836 186.539 74.4774 157.308 43.8223 128.229C13.1701 99.153 -12.7632 70.2418 -31.0341 48.5991C-40.1691 37.7782 -47.3876 28.7755 -52.3217 22.4785C-54.7888 19.3302 -56.6846 16.8586 -57.9634 15.1741C-58.6028 14.3323 -59.0878 13.6868 -59.4128 13.2529C-59.5754 13.0354 -59.6979 12.8708 -59.7797 12.7609L-59.8717 12.6368L-59.8946 12.606L-59.9003 12.5982C-59.9015 12.5963 -59.9021 12.5959 -60.5023 12.9347C-61.1025 13.2735 -61.1018 13.2745 -61.1005 13.2763L-61.0944 13.2841L-61.0709 13.3163L-60.9777 13.4418C-60.895 13.5531 -60.7717 13.7186 -60.6084 13.9369C-60.2817 14.3737 -59.7948 15.021 -59.1536 15.8656C-57.8712 17.5546 -55.9714 20.0313 -53.5002 23.1851C-48.5578 29.4923 -41.3296 38.5073 -32.1834 49.3416C-13.892 71.0086 12.0745 99.9571 42.7718 129.077C73.4669 158.193 108.908 187.496 146.149 209.861C183.382 232.221 222.477 247.683 260.469 249.038C278.83 249.692 293.522 246.393 305.746 240.119C317.961 233.849 327.664 224.632 336.095 213.513C344.524 202.397 351.702 189.354 358.85 175.411C360.85 171.51 362.847 167.54 364.869 163.52C370.082 153.157 375.46 142.467 381.47 131.801C398.146 102.212 419.632 72.9354 455.694 51.8499C491.752 30.7685 542.461 17.8268 617.684 21.0533L617.753 19.8051C542.31 16.5694 491.274 29.5447 454.904 50.8113C418.534 72.0739 396.911 101.577 380.189 131.249C374.163 141.94 368.766 152.669 363.549 163.041C361.53 167.055 359.537 171.016 357.546 174.9C350.402 188.835 343.264 201.798 334.905 212.822C326.548 223.842 316.99 232.898 305.022 239.041Z" fill="url(#paint3_linear_14_149)" fill-opacity="0.1"/>
<path fill-rule="evenodd" clip-rule="evenodd" d="M307.815 233.065C295.956 239.201 281.668 242.475 263.697 241.868C226.155 240.598 187.057 224.984 149.473 202.174C111.903 179.373 75.9325 149.434 44.66 119.631C13.3913 89.8323 -13.1599 60.1892 -31.8947 37.9947C-41.2615 26.898 -48.6733 17.6646 -53.7423 11.207C-56.2768 7.97792 -58.2256 5.44292 -59.5403 3.71576C-60.1977 2.85223 -60.6964 2.19067 -61.0307 1.74532C-61.1977 1.52267 -61.3238 1.35408 -61.4078 1.24131L-61.5023 1.11428L-61.5316 1.07474C-61.5329 1.07308 -61.5334 1.0723 -62.3329 1.52515C-63.1324 1.97794 -63.1316 1.979 -63.1303 1.98093L-63.1241 1.98926L-63.0036 2.15118C-62.9185 2.26542 -62.7914 2.43548 -62.6232 2.6596C-62.2868 3.1079 -61.7857 3.77245 -61.126 4.63911C-59.8066 6.37242 -57.8528 8.914 -55.3128 12.15C-50.233 18.6213 -42.8087 27.8703 -33.4273 38.9841C-14.6656 61.2107 11.9288 90.9026 43.2565 120.758C74.5809 150.61 110.658 180.645 148.387 203.543C186.103 226.433 225.559 242.245 263.623 243.532C281.918 244.151 296.576 240.816 308.785 234.499C320.981 228.187 330.671 218.931 339.094 207.789C347.514 196.652 354.695 183.595 361.852 169.653C363.808 165.843 365.762 161.967 367.74 158.045C373.007 147.598 378.441 136.821 384.524 126.07C401.245 96.5132 422.787 67.3023 458.867 46.2687C494.938 25.2406 545.648 12.3233 620.834 15.5479L620.926 13.8837C545.446 10.6463 494.304 23.609 457.81 44.8826C421.329 66.1511 399.6 95.6636 382.816 125.331C376.713 136.118 371.254 146.947 365.98 157.404C364.007 161.319 362.059 165.182 360.114 168.971C352.961 182.903 345.833 195.854 337.505 206.87C329.181 217.881 319.684 226.923 307.815 233.065Z" fill="url(#paint4_linear_14_149)" fill-opacity="0.1"/>
<path fill-rule="evenodd" clip-rule="evenodd" d="M310.635 223.989C298.246 230.178 283.264 233.464 264.418 232.842C226.71 231.598 188.095 216.448 151.367 194.388C114.643 172.329 79.8335 143.38 49.7399 114.578C19.6471 85.7773 -5.72322 57.1309 -23.5706 35.684C-32.4941 24.961 -39.5364 16.0384 -44.3475 9.79706C-46.7531 6.67635 -48.6007 4.22597 -49.8469 2.55606C-50.47 1.72112 -50.9426 1.08126 -51.2594 0.6503C-51.4178 0.43482 -51.5373 0.271566 -51.6171 0.16224L-51.7069 0.0389358L-51.7294 0.00799583L-51.7349 0.000317825C-51.7362 -0.00138321 -51.7368 -0.00221108 -52.0385 0.165042C-52.3401 0.332296 -52.3395 0.333218 -52.3382 0.335011L-52.3325 0.342917L-52.2192 0.498399C-52.139 0.608277 -52.0192 0.772132 -51.8603 0.988209C-51.5427 1.42032 -51.0691 2.06138 -50.4452 2.89756C-49.1972 4.56995 -47.3475 7.0229 -44.9399 10.1463C-40.1246 16.3933 -33.0773 25.3219 -24.1482 36.0518C-6.29054 57.5111 19.0968 86.1768 49.2125 115C79.3269 143.821 114.177 172.808 150.963 194.903C187.744 216.995 226.491 232.216 264.392 233.467C283.352 234.092 298.47 230.785 310.989 224.532C323.506 218.28 333.401 209.094 341.939 197.993C350.475 186.894 357.664 173.87 364.76 159.93C366.98 155.568 369.191 151.118 371.432 146.608C376.356 136.695 381.422 126.497 387.045 116.322C403.402 86.7244 424.428 57.4127 460.15 36.3005C495.871 15.1906 546.328 2.25355 621.606 5.48226L621.643 4.85821C546.254 1.62472 495.632 14.5783 459.75 35.7829C423.876 56.9856 402.781 86.4127 386.402 116.05C380.773 126.236 375.697 136.455 370.77 146.372C368.531 150.88 366.323 155.325 364.107 159.676C357.014 173.611 349.846 186.593 341.346 197.645C332.848 208.693 323.027 217.799 310.635 223.989Z" fill="url(#paint5_linear_14_149)" fill-opacity="0.1"/>
<defs>
<linearGradient id="paint0_linear_14_149" x1="607.723" y1="31.7011" x2="67.0398" y2="374.708" gradientUnits="userSpaceOnUse">
<stop offset="0.119792" stop-color="#FDD5FF"/>
<stop offset="0.322917" stop-color="#D1F3FF"/>
<stop offset="0.677083" stop-color="#FFD5FF"/>
<stop offset="0.930834" stop-color="#FFF4D9"/>
</linearGradient>
<linearGradient id="paint1_linear_14_149" x1="608.203" y1="20.1866" x2="60.1582" y2="361.448" gradientUnits="userSpaceOnUse">
<stop offset="0.119792" stop-color="#FDD5FF"/>
<stop offset="0.322917" stop-color="#D1F3FF"/>
<stop offset="0.677083" stop-color="#FFD5FF"/>
<stop offset="0.930834" stop-color="#FFF4D9"/>
</linearGradient>
<linearGradient id="paint2_linear_14_149" x1="608.752" y1="12.6975" x2="60.6065" y2="353.687" gradientUnits="userSpaceOnUse">
<stop offset="0.119792" stop-color="#FDD5FF"/>
<stop offset="0.322917" stop-color="#D1F3FF"/>
<stop offset="0.677083" stop-color="#FFD5FF"/>
<stop offset="0.930834" stop-color="#FFF4D9"/>
</linearGradient>
<linearGradient id="paint3_linear_14_149" x1="613.731" y1="12.5979" x2="73.0401" y2="355.599" gradientUnits="userSpaceOnUse">
<stop offset="0.119792" stop-color="#FDD5FF"/>
<stop offset="0.322917" stop-color="#D1F3FF"/>
<stop offset="0.677083" stop-color="#FFD5FF"/>
<stop offset="0.930834" stop-color="#FFF4D9"/>
</linearGradient>
<linearGradient id="paint4_linear_14_149" x1="616.873" y1="1.07455" x2="66.6211" y2="344.1" gradientUnits="userSpaceOnUse">
<stop offset="0.119792" stop-color="#FDD5FF"/>
<stop offset="0.322917" stop-color="#D1F3FF"/>
<stop offset="0.677083" stop-color="#FFD5FF"/>
<stop offset="0.930834" stop-color="#FFF4D9"/>
</linearGradient>
<linearGradient id="paint5_linear_14_149" x1="617.65" y1="3.81714e-06" x2="82.53" y2="341.33" gradientUnits="userSpaceOnUse">
<stop offset="0.119792" stop-color="#FDD5FF"/>
<stop offset="0.322917" stop-color="#D1F3FF"/>
<stop offset="0.677083" stop-color="#FFD5FF"/>
<stop offset="0.930834" stop-color="#FFF4D9"/>
</linearGradient>
</defs>
</svg>
